<svg xmlns="http://www.w3.org/2000/svg" xmlns:xlink="http://www.w3.org/1999/xlink" version="1.1" x="0px" y="0px" viewBox="0 0 100 125" style="enable-background:new 0 0 100 100;" xml:space="preserve"><style type="text/css">
	.st0{fill:none;stroke:#000000;stroke-width:2;stroke-linecap:round;stroke-linejoin:round;stroke-miterlimit:10;}
	.st1{stroke:#000000;stroke-miterlimit:10;}
</style><path d="M42.7,30.3v-5.2c1.2-0.1,2.2-1.2,2.2-2.5v-6c0-1.3-1-2.3-2.2-2.5v-2.9c0-0.6-0.4-1-1-1h-9.9c-0.6,0-1,0.4-1,1v2.9  c-1.2,0.1-2.2,1.2-2.2,2.5v6c0,1.3,1,2.3,2.2,2.5v5.2C20.7,33,13.7,42.1,13.7,52.6v33.5c0,2.3,1.9,4.2,4.2,4.2h37.7  c2.3,0,4.2-1.9,4.2-4.2V52.6C59.8,42.1,52.8,33,42.7,30.3z M32.8,12.3h7.9v1.9h-7.9V12.3z M30.6,22.7v-6c0-0.3,0.2-0.5,0.5-0.5h11.3  c0.3,0,0.5,0.2,0.5,0.5v6c0,0.3-0.2,0.5-0.5,0.5H31.1C30.8,23.2,30.6,23,30.6,22.7z M57.8,86.1c0,1.2-1,2.2-2.2,2.2H17.9  c-1.2,0-2.2-1-2.2-2.2v-5.7h42.2V86.1z M57.8,52.2c0,0.1,0,0.3,0,0.4v25.8H15.7V52.6c0-0.1,0-0.3,0-0.4c0,0,0,0,0,0L57.8,52.2  C57.8,52.2,57.8,52.2,57.8,52.2z M15.8,50.2c1-8.8,7.4-16.1,16.2-18.1c0.5-0.1,0.8-0.5,0.8-1v-5.9h7.9v5.9c0,0.5,0.3,0.9,0.8,1  c8.8,2,15.2,9.3,16.2,18.1H15.8z"/><path d="M85.7,62.1H63.4c-0.3,0-0.5,0.1-0.7,0.3c-0.2,0.2-0.3,0.5-0.3,0.8l1.8,24.3c0.1,1.8,1.7,3.2,3.5,3.2h13.7  c1.8,0,3.3-1.4,3.5-3.2l1.8-24.3c0-0.3-0.1-0.6-0.3-0.8C86.3,62.2,86,62.1,85.7,62.1z M82.9,87.3c-0.1,0.8-0.7,1.4-1.5,1.4H67.7  c-0.8,0-1.4-0.6-1.5-1.4l-1.3-17.7c1.8,0.1,2.9,0.5,3.9,0.9c1.4,0.5,2.8,1.1,5.7,1.1c2.8,0,4.3-0.5,5.7-1.1c1.1-0.4,2.2-0.8,4.1-0.9  L82.9,87.3z M84.4,67.6c-2.4,0.1-3.7,0.6-4.9,1c-1.3,0.5-2.5,0.9-4.9,0.9c-2.5,0-3.7-0.5-4.9-0.9c-1.2-0.5-2.5-0.9-4.8-1l-0.3-3.5  h20.2L84.4,67.6z"/><text x="0" y="115" fill="#000000" font-size="5px" font-weight="bold" font-family="'Helvetica Neue', Helvetica, Arial-Unicode, Arial, Sans-serif">Created by Made by Made</text><text x="0" y="120" fill="#000000" font-size="5px" font-weight="bold" font-family="'Helvetica Neue', Helvetica, Arial-Unicode, Arial, Sans-serif">from the Noun Project</text></svg>