<svg xmlns="http://www.w3.org/2000/svg" xmlns:xlink="http://www.w3.org/1999/xlink" version="1.1" x="0px" y="0px" viewBox="0 0 91.9 179.875" style="enable-background:new 0 0 91.9 143.9;" xml:space="preserve"><style type="text/css">
	.st0{display:none;}
	.st1{display:inline;fill:none;stroke:#000000;stroke-width:6;stroke-miterlimit:10;}
	.st2{display:inline;fill:#60605F;}
	.st3{display:inline;fill:none;stroke:#000000;stroke-width:8;stroke-miterlimit:10;}
	.st4{display:inline;fill:none;stroke:#000000;stroke-width:10;stroke-miterlimit:10;}
	.st5{display:inline;fill:none;stroke:#000000;stroke-width:12;stroke-miterlimit:10;}
	.st6{display:inline;fill:none;stroke:#000000;stroke-width:6;stroke-linecap:round;stroke-miterlimit:10;}
	.st7{display:inline;fill:none;stroke:#000000;stroke-width:8;stroke-linecap:round;stroke-miterlimit:10;}
	.st8{display:inline;fill:none;stroke:#000000;stroke-width:10;stroke-linecap:round;stroke-miterlimit:10;}
	.st9{display:inline;fill:none;stroke:#000000;stroke-width:12;stroke-linecap:round;stroke-miterlimit:10;}
	.st10{display:inline;}
	.st11{display:inline;fill:none;stroke:#000000;stroke-miterlimit:10;}
	.st12{display:inline;fill:none;stroke:#000000;stroke-width:1.0729;stroke-miterlimit:10;}
</style><g><path d="M39.1,141.3c0,0.9-0.7,1.6-1.6,1.6h-35c-0.9,0-1.6-0.7-1.6-1.6s0.7-1.6,1.6-1.6h15.9v-25.8c-4.9-0.6-9.4-4.2-12.8-10.1   C2,97.4,0,89,0,80.1c0-3.2,0.3-6.4,0.8-9.5c0.1-0.9,1-1.5,1.9-1.3c0.9,0.1,1.5,1,1.3,1.9c-0.5,2.9-0.7,5.9-0.7,8.9   c0,3.4,0.3,6.8,0.9,10c12.4,4,20-4.2,31.9-1.1c0.5-2.8,0.7-5.8,0.7-8.9c0-3-0.2-6-0.7-8.9c-0.1-0.9,0.4-1.7,1.3-1.9   c0.9-0.1,1.7,0.4,1.9,1.3c0.5,3.1,0.8,6.2,0.8,9.5c0,8.9-2,17.3-5.6,23.6c-3.4,6-7.9,9.5-12.8,10.1v25.8h15.9   C38.4,139.7,39.1,140.4,39.1,141.3z"/><path d="M76.2,35V10.2c0-1.1-0.8-2.1-2-2.2l0,0l0.6-5.6c0.1-1.2-0.8-2.3-2-2.4c-0.7,0-1.4-0.1-2-0.1c-0.7,0-1.4,0-2,0.1   c-1.2,0.1-2.2,1.2-2,2.4l0.6,5.6c0,0,0,0,0,0c-1.1,0.1-2,1-2,2.2V35c0,13-15.7,21.1-15.7,35.1v69.7c0,1,0.6,1.8,1.6,2.1   c2.6,0.7,8.6,2,19.6,2c11,0,17-1.2,19.6-2c0.9-0.3,1.6-1.1,1.6-2.1V70.1C91.9,56.1,76.2,48,76.2,35z"/></g><text x="0" y="158.9" fill="#000000" font-size="5px" font-weight="bold" font-family="'Helvetica Neue', Helvetica, Arial-Unicode, Arial, Sans-serif">Created by Matthias Smit</text><text x="0" y="163.9" fill="#000000" font-size="5px" font-weight="bold" font-family="'Helvetica Neue', Helvetica, Arial-Unicode, Arial, Sans-serif">from the Noun Project</text></svg>