<svg xmlns="http://www.w3.org/2000/svg" xmlns:xlink="http://www.w3.org/1999/xlink" version="1.1" x="0px" y="0px" viewBox="0 0 100 125" enable-background="new 0 0 100 100" xml:space="preserve"><g><path fill-rule="evenodd" clip-rule="evenodd" d="M43.191,40.334c-1.208-1.59-1.846-3.257-2.007-5.247   c-0.541-6.694-1.083-13.389-1.627-20.083c-1.854,0-3.707,0-5.559,0c-1.851,0-3.704,0-5.555,0   c-0.544,6.722-1.107,13.436-1.692,20.151c-0.169,1.944-0.792,3.571-1.963,5.132l-3.087,4.116c-0.813,1.084-1.2,2.247-1.2,3.602   v41.997c0,2.205,1.799,4.002,4.003,4.002h18.993c2.204,0,4.003-1.799,4.003-4.002l0.001-41.975c0-1.368-0.396-2.543-1.224-3.632   L43.191,40.334z M29.894,20.996c2.736,0,5.472,0,8.208,0c0.111,1.469,0.223,2.937,0.334,4.404   c-1.015,1.081-2.962,2.201-4.443,2.201s-3.423-1.114-4.443-2.201C29.666,23.932,29.78,22.464,29.894,20.996z M45.457,73.324   c0,4.861-3.677,8.838-8.17,8.838c-2.205,0-4.409,0-6.615,0c-4.494,0-8.17-3.977-8.17-8.838V61.684c0-4.861,3.676-8.838,8.17-8.838   c2.206,0,4.41-0.002,6.615-0.002c4.494,0,8.17,3.979,8.17,8.84V73.324z"/><path fill-rule="evenodd" clip-rule="evenodd" d="M27.507,12.997c4.054,0,8.952,0,13.006,0c0.415,0,0.769-0.237,0.927-0.621   c0.158-0.384,0.072-0.802-0.221-1.094c-0.368-0.365-2.428-1.286-2.303-1.286c1.1,0,2-0.899,2-1.999V7.996c0-1.1-0.901-2-2-2h-9.843   c-1.099,0-2,0.901-2,2v0.001c0,1.1,0.9,1.999,2,1.999c0.178,0-1.912,0.928-2.273,1.286c-0.294,0.292-0.379,0.71-0.221,1.094   C26.738,12.759,27.092,12.997,27.507,12.997z"/><rect x="25.501" y="68.004" fill-rule="evenodd" clip-rule="evenodd" width="17" height="2"/><rect x="29.501" y="72.004" fill-rule="evenodd" clip-rule="evenodd" width="9" height="2"/><path fill-rule="evenodd" clip-rule="evenodd" d="M33.979,62.027c1.383,0,2.511-1.129,2.511-2.512s-1.128-2.512-2.511-2.512   s-2.512,1.129-2.512,2.512S32.596,62.027,33.979,62.027z"/><path fill-rule="evenodd" clip-rule="evenodd" d="M76.502,28.004v11c0,1.097-0.451,2.095-1.174,2.818v0.008   c-0.725,0.725-1.725,1.174-2.826,1.174c-1.104,0-2.104-0.449-2.828-1.174c-0.723-0.724-1.172-1.724-1.172-2.826v-11h-19v8.504   l0.002,0.495h16.928v2H49.545c0.215,6.015,1.233,11.389,3.245,17.264c1.979,5.781,3.099,12.354,3.099,19.324   c0,3.596-0.299,7.084-0.857,10.412h10.471v2H54.658l-0.037,0.189c-0.254,1.219,0.029,2.371,0.814,3.336s1.863,1.475,3.102,1.475   c3.975,0,7.949,0,11.926,0c1.238,0,2.314-0.51,3.102-1.475c0.785-0.965,1.066-2.117,0.814-3.336   c-0.824-3.977-1.268-8.211-1.268-12.602c0-6.971,1.119-13.543,3.098-19.324c2.285-6.675,3.289-12.704,3.289-19.759v-8.504H76.502z    M71.502,88.004h-3.795v-2h3.795V88.004z"/><path fill-rule="evenodd" clip-rule="evenodd" d="M70.502,28.003v11.001c0,1.1,0.898,2,2,2l0,0c1.1,0,2-0.9,2-2V28.003   c0-1.102,0.898-1.999,2-1.999h2.408c0.346-0.802,0.537-1.686,0.537-2.614c0-2.749-1.678-5.105-4.064-6.104   c-0.279-0.103-0.564-0.182-0.852-0.237h-0.004c-0.348-0.068-0.709-0.103-1.072-0.103c-0.566,0-1.119,0.082-1.637,0.239   c-0.525,0.16-1.029,0.399-1.494,0.71l-1.109-1.656c0.625-0.419,1.309-0.742,2.023-0.96c0.682-0.207,1.383-0.319,2.086-0.332   c-0.883-1.541-2.543-2.579-4.447-2.579c-1.615,0-3.055,0.747-3.994,1.915l0.014,0.01c-0.252,0.353-0.445,0.738-0.576,1.143   c-0.127,0.398-0.193,0.823-0.193,1.261c0,0.241,0.02,0.479,0.059,0.706c0.041,0.228,0.102,0.456,0.182,0.683l-1.883,0.671   c-0.117-0.327-0.207-0.668-0.268-1.018c-0.059-0.348-0.09-0.697-0.09-1.042c0-0.503,0.064-1.005,0.188-1.494   c-0.426-0.106-0.871-0.163-1.33-0.163c-2.152,0-4.012,1.238-4.91,3.041l0,0c-0.141,0.318-0.246,0.654-0.311,1   c-0.064,0.344-0.088,0.696-0.072,1.048c0.016,0.312,0.066,0.626,0.148,0.937c0.084,0.314,0.197,0.612,0.34,0.888l-1.773,0.906   c-0.215-0.417-0.381-0.846-0.496-1.278c-0.1-0.375-0.166-0.764-0.197-1.161c-2.312,0.87-3.997,3.019-4.192,5.585h18.981   C69.604,26.004,70.502,26.902,70.502,28.003z"/></g><text x="0" y="115" fill="#000000" font-size="5px" font-weight="bold" font-family="'Helvetica Neue', Helvetica, Arial-Unicode, Arial, Sans-serif">Created by Nikita Kozin</text><text x="0" y="120" fill="#000000" font-size="5px" font-weight="bold" font-family="'Helvetica Neue', Helvetica, Arial-Unicode, Arial, Sans-serif">from the Noun Project</text></svg>